<svg xmlns="http://www.w3.org/2000/svg" viewBox="0 0 1200 820" role="img" aria-label="Omnifix">
  <defs>
    <linearGradient id="g1" x1="160" y1="210" x2="980" y2="520" gradientUnits="userSpaceOnUse">
      <stop offset="0" stop-color="#020B1F"/>
      <stop offset="0.45" stop-color="#082B78"/>
      <stop offset="0.72" stop-color="#06B6D4"/>
      <stop offset="1" stop-color="#2563EB"/>
    </linearGradient>
    <linearGradient id="g2" x1="340" y1="520" x2="900" y2="220" gradientUnits="userSpaceOnUse">
      <stop offset="0" stop-color="#020617"/>
      <stop offset="0.55" stop-color="#0F5BFF"/>
      <stop offset="1" stop-color="#22D3EE"/>
    </linearGradient>
    <filter id="shadow" x="-30%" y="-30%" width="160%" height="160%">
      <feDropShadow dx="0" dy="18" stdDeviation="18" flood-color="#0F172A" flood-opacity="0.23"/>
    </filter>
  </defs>
  <rect width="1200" height="820" fill="#fff"/>
  <g filter="url(#shadow)">
    <path d="M548 112 L304 520 L476 520 L619 279 Z" fill="#061126"/>
    <path d="M548 112 L609 272 L485 520 L304 520 Z" fill="url(#g1)" opacity="0.86"/>
    <path d="M620 110 L912 584 L732 584 L548 285 Z" fill="url(#g2)"/>
    <path d="M620 110 L664 245 L773 584 L912 584 Z" fill="#0B63FF" opacity="0.78"/>
    <path d="M478 520 L732 520 L777 584 L326 584 Z" fill="#0F5BFF"/>
    <path d="M520 507 L724 507 L732 520 L478 520 Z" fill="#38BDF8" opacity="0.75"/>
  </g>
  <text x="600" y="710" text-anchor="middle" font-family="Montserrat, Arial, sans-serif" font-size="120" font-weight="900" letter-spacing="28" fill="#061126">OMNIFI<tspan fill="#1463FF">X</tspan></text>
  <g font-family="Montserrat, Arial, sans-serif" font-size="30" font-weight="600" letter-spacing="24" fill="#061126">
    <text x="600" y="778" text-anchor="middle">TODO TIENE <tspan fill="#1463FF">SOLUCIÓN</tspan></text>
  </g>
  <path d="M126 766 H220" stroke="#1463FF" stroke-width="6" stroke-linecap="round"/>
  <path d="M980 766 H1074" stroke="#1463FF" stroke-width="6" stroke-linecap="round"/>
</svg>
